# xmcd
#
# Track frame offsets: 
#        150
#        13924
#        27354
#        40548
#        52204
#        66194
#        78263
#        91956
#        104436
#        116900
#        131299
#        143935
#        156984
#        167830
#        181847
#        193428
#        207538
#        220530
#        235028
#        249677
#
# Disc length: 3509 seconds
#
# Revision: 1
# Processed by: cddbd v1.5.2PL0 Copyright (c) Steve Scherf et al.
# Submitted via: ExactAudioCopy v0.95b4
#
DISCID=230db314
DTITLE=John Lee Hooker - Boogie Chillen' [Morada Music]
DYEAR=2003
DGENRE=Blues
TTITLE0=Hey, 'S The House Rent Boogie
TTITLE1=I'm In The Mood
TTITLE2=Do My Baby Think Of Me?
TTITLE3=I'm Gonna Git Me A Woman
TTITLE4=Four Women In My Life
TTITLE5=Yes, Baby, Baby
TTITLE6=Let's Talk It Over (One More Time)
TTITLE7=Baby, How Can You Do It?
TTITLE8=Bluebird, Take A Letter Down South
TTITLE9=Boogie Chillen'
TTITLE10=It Hurts Me So
TTITLE11=Down Child
TTITLE12=Gonna Boogie
TTITLE13=Bad Boy
TTITLE14=Baby, I'm Gonna Miss You
TTITLE15=Half A Stranger
TTITLE16=Rock House Boogie
TTITLE17=Baby, You Ain't No Ugly Good
TTITLE18=Lookin' For A Woman
TTITLE19=The Syndicator
EXTD=
EXTT0=
EXTT1=
EXTT2=
EXTT3=
EXTT4=
EXTT5=
EXTT6=
EXTT7=
EXTT8=
EXTT9=
EXTT10=
EXTT11=
EXTT12=
EXTT13=
EXTT14=
EXTT15=
EXTT16=
EXTT17=
EXTT18=
EXTT19=
PLAYORDER=
